<svg width="32" height="32" viewBox="0 0 32 32" fill="none" xmlns="http://www.w3.org/2000/svg">
<path fill-rule="evenodd" clip-rule="evenodd" d="M16 0C7.16344 0 0 7.16344 0 16C0 24.8366 7.16344 32 16 32C24.8366 32 32 24.8366 32 16C32 7.16344 24.8366 0 16 0ZM15.5544 13.5587L15.5208 13.005C15.4201 11.5701 16.3042 10.2594 17.7032 9.75101C18.218 9.57023 19.0909 9.54763 19.6617 9.70581C19.8856 9.77361 20.3108 9.99958 20.613 10.203L21.1614 10.5758L21.7658 10.3837C22.1015 10.282 22.5492 10.1126 22.7506 9.99958C22.9409 9.89789 23.1088 9.8414 23.1088 9.87529C23.1088 10.0674 22.6947 10.7227 22.3477 11.0843C21.8777 11.5927 22.012 11.6379 22.9633 11.2989C23.534 11.1069 23.5452 11.1069 23.4333 11.3215C23.3662 11.4345 23.0192 11.83 22.6499 12.1915C22.0232 12.813 21.9896 12.8807 21.9896 13.4005C21.9896 14.2027 21.6091 15.8749 21.2285 16.7901C20.5235 18.5075 19.0126 20.2814 17.5017 21.174C15.3753 22.4281 12.5438 22.7445 10.16 22.0101C9.36538 21.7615 8 21.1288 8 21.0158C8 20.9819 8.41409 20.9367 8.91772 20.9254C9.96973 20.9028 11.0218 20.6091 11.9171 20.0893L12.5214 19.7278L11.8276 19.4905C10.8427 19.1515 9.95854 18.3719 9.73471 17.6375C9.66756 17.4002 9.68994 17.3889 10.3167 17.3889L10.9658 17.3776L10.4174 17.1178C9.76828 16.7901 9.17513 16.2365 8.88414 15.6715C8.6715 15.2648 8.4029 14.2366 8.48124 14.1575C8.50362 14.1236 8.73865 14.1914 9.00725 14.2818C9.77948 14.5643 9.8802 14.4965 9.43253 14.0219C8.59316 13.1632 8.33575 11.8865 8.73865 10.6775L8.92891 10.1352L9.66756 10.8696C11.1784 12.3497 12.9579 13.231 14.9948 13.4909L15.5544 13.5587Z" fill="white"/>
</svg>
